FFmpeg version SVN-r25716, Copyright (c) 2000-2010 the FFmpeg developers  built on Nov 10 2010 12:23:18 with gcc 4.1.2 20080704 (Red Hat 4.1.2-48)  configuration: --enable-libmp3lame --enable-shared --disable-mmx --arch=x86_64  libavutil     50.33. 0 / 50.33. 0  libavcore      0.12. 1 /  0.12. 1  libavcodec    52.94. 4 / 52.94. 4  libavformat   52.84. 0 / 52.84. 0  libavdevice   52. 2. 2 / 52. 2. 2  libavfilter    1.59. 0 /  1.59. 0  libswscale     0.12. 0 /  0.12. 0Seems stream 0 codec frame rate differs from container frame rate: 600.00 (600/1) -> 15.00 (15/1)Input #0, mov,mp4,m4a,3gp,3g2,mj2, from '/RAID10/data/converted_video_files/42163.mov':  Metadata:    major_brand     : qt      minor_version   : 537199360    compatible_brands: qt    Duration: 00:00:11.93, start: 0.000000, bitrate: 21089 kb/s    Stream #0.0(eng): Video: mjpeg, yuvj420p, 1388x1040 [PAR 1:1 DAR 347:260], 21087 kb/s, 15 fps, 15 tbr, 600 tbn, 600 tbc[buffer @ 0xb17f8f0] w:1388 h:1040 pixfmt:yuvj420p[ffsink @ 0xb17fb60] auto-inserting filter 'auto-inserted scaler 0' between the filter 'src' and the filter 'out'[scale @ 0xb19f220] w:1388 h:1040 fmt:yuvj420p -> w:1388 h:1040 fmt:yuv420p flags:0x4Output #0, flv, to '/RAID10/data/converted_video_files/42163.flv':  Metadata:    encoder         : Lavf52.84.0    Stream #0.0(eng): Video: flv, yuv420p, 1388x1040 [PAR 1:1 DAR 347:260], q=2-31, 600 kb/s, 1k tbn, 24 tbcStream mapping:  Stream #0.0 -> #0.0Press [q] to stop encodingframe=    7 fps=  0 q=9.6 size=     643kB time=0.46 bitrate=11468.3kbits/s    frame=   15 fps= 13 q=30.2 size=     734kB time=0.96 bitrate=6270.3kbits/s    frame=   22 fps= 13 q=31.0 size=     771kB time=1.46 bitrate=4329.8kbits/s    frame=   30 fps= 13 q=31.0 size=     864kB time=1.96 bitrate=3611.4kbits/s    frame=   38 fps= 14 q=31.0 size=     931kB time=2.50 bitrate=3051.1kbits/s    frame=   46 fps= 14 q=31.0 size=     959kB time=3.04 bitrate=2582.2kbits/s    frame=   54 fps= 14 q=31.0 size=    1022kB time=3.58 bitrate=2335.0kbits/s    frame=   62 fps= 14 q=31.0 size=    1091kB time=4.12 bitrate=2168.1kbits/s    frame=   70 fps= 14 q=31.0 size=    1121kB time=4.62 bitrate=1986.3kbits/s    frame=   78 fps= 14 q=31.0 size=    1184kB time=5.17 bitrate=1877.5kbits/s    frame=   85 fps= 14 q=24.8 size=    1252kB time=5.62 bitrate=1823.9kbits/s    frame=   93 fps= 14 q=31.0 size=    1299kB time=6.17 bitrate=1725.3kbits/s    frame=  101 fps= 14 q=31.0 size=    1365kB time=6.71 bitrate=1666.9kbits/s    frame=  109 fps= 14 q=24.8 size=    1432kB time=7.25 bitrate=1618.2kbits/s    frame=  117 fps= 14 q=31.0 size=    1466kB time=7.75 bitrate=1550.0kbits/s    frame=  125 fps= 15 q=31.0 size=    1536kB time=8.29 bitrate=1517.5kbits/s    frame=  133 fps= 15 q=24.8 size=    1604kB time=8.83 bitrate=1487.6kbits/s    frame=  140 fps= 15 q=31.0 size=    1635kB time=9.29 bitrate=1441.9kbits/s    frame=  148 fps= 15 q=31.0 size=    1705kB time=9.83 bitrate=1420.1kbits/s    frame=  156 fps= 15 q=31.0 size=    1748kB time=10.38 bitrate=1380.6kbits/s    frame=  164 fps= 15 q=31.0 size=    1823kB time=10.92 bitrate=1368.2kbits/s    frame=  172 fps= 15 q=31.0 size=    1897kB time=11.46 bitrate=1356.4kbits/s    frame=  179 fps= 15 q=31.0 Lsize=    1929kB time=11.92 bitrate=1326.1kbits/s    video:1926kB audio:0kB global headers:0kB muxing overhead 0.155867%